<svg xmlns="http://www.w3.org/2000/svg" xmlns:xlink="http://www.w3.org/1999/xlink" viewBox="0 0 209.61 107.26"><defs><linearGradient id="linear-gradient" x1="19.75" y1="60.97" x2="192.81" y2="60.97" gradientUnits="userSpaceOnUse"><stop offset="0" stop-color="#2ad38b"/><stop offset="0.58" stop-color="#28de86"/><stop offset="1" stop-color="#0fd186"/></linearGradient><linearGradient id="linear-gradient-2" x1="45.34" y1="74.76" x2="169.44" y2="74.76" xlink:href="#linear-gradient"/><linearGradient id="linear-gradient-3" x1="191.72" y1="73.18" x2="201.45" y2="73.18" xlink:href="#linear-gradient"/><linearGradient id="linear-gradient-4" x1="118.55" y1="12.49" x2="133.54" y2="12.49" gradientTransform="translate(109.15 -113.04) rotate(76.67)" xlink:href="#linear-gradient"/><linearGradient id="linear-gradient-5" x1="51.19" y1="30.8" x2="57.61" y2="30.8" xlink:href="#linear-gradient"/><linearGradient id="linear-gradient-6" x1="152.3" y1="24.92" x2="158.72" y2="24.92" xlink:href="#linear-gradient"/><linearGradient id="linear-gradient-7" x1="81.51" y1="3.21" x2="87.93" y2="3.21" xlink:href="#linear-gradient"/><linearGradient id="linear-gradient-8" x1="193.51" y1="84.94" x2="196.15" y2="84.94" xlink:href="#linear-gradient"/><linearGradient id="linear-gradient-9" x1="153.01" y1="2.22" x2="154.99" y2="2.22" xlink:href="#linear-gradient"/><linearGradient id="linear-gradient-10" x1="54.39" y1="7.15" x2="56.96" y2="7.15" xlink:href="#linear-gradient"/><linearGradient id="linear-gradient-11" x1="0" y1="35.91" x2="3.43" y2="35.91" xlink:href="#linear-gradient"/><linearGradient id="linear-gradient-12" x1="206.18" y1="48.45" x2="209.61" y2="48.45" xlink:href="#linear-gradient"/><linearGradient id="linear-gradient-13" x1="21.97" y1="28.98" x2="36.49" y2="28.98" xlink:href="#linear-gradient"/><linearGradient id="linear-gradient-14" x1="6.14" y1="81.93" x2="9.56" y2="81.93" xlink:href="#linear-gradient"/><linearGradient id="linear-gradient-15" x1="184.68" y1="30.8" x2="198.76" y2="30.8" xlink:href="#linear-gradient"/><linearGradient id="linear-gradient-16" x1="0.93" y1="62.62" x2="14.77" y2="62.62" xlink:href="#linear-gradient"/><linearGradient id="linear-gradient-17" x1="71.55" y1="12.49" x2="77.33" y2="12.49" xlink:href="#linear-gradient"/><linearGradient id="linear-gradient-18" x1="73.69" y1="12.49" x2="75.19" y2="12.49" xlink:href="#linear-gradient"/><linearGradient id="linear-gradient-19" x1="165.28" y1="19.24" x2="171.05" y2="19.24" xlink:href="#linear-gradient"/><linearGradient id="linear-gradient-20" x1="167.41" y1="19.24" x2="168.91" y2="19.24" xlink:href="#linear-gradient"/><linearGradient id="linear-gradient-21" x1="40.07" y1="36.69" x2="44.59" y2="36.69" xlink:href="#linear-gradient"/><linearGradient id="linear-gradient-23" x1="14.37" y1="82.18" x2="18.17" y2="82.18" xlink:href="#linear-gradient"/><linearGradient id="linear-gradient-24" x1="189.51" y1="19.24" x2="193.31" y2="19.24" xlink:href="#linear-gradient"/><linearGradient id="linear-gradient-25" x1="187.92" y1="72.08" x2="191.72" y2="72.08" xlink:href="#linear-gradient"/><linearGradient id="linear-gradient-26" x1="23.81" y1="17.1" x2="27.61" y2="17.1" xlink:href="#linear-gradient"/><linearGradient id="linear-gradient-27" x1="111.88" y1="11.74" x2="117.01" y2="11.74" xlink:href="#linear-gradient"/><linearGradient id="linear-gradient-28" x1="131.14" y1="30.8" x2="174.97" y2="30.8" xlink:href="#linear-gradient"/><linearGradient id="linear-gradient-29" x1="126.07" y1="30.8" x2="130" y2="30.8" xlink:href="#linear-gradient"/><linearGradient id="linear-gradient-30" x1="117.8" y1="30.8" x2="123.58" y2="30.8" xlink:href="#linear-gradient"/><linearGradient id="linear-gradient-31" x1="119.94" y1="30.8" x2="121.44" y2="30.8" xlink:href="#linear-gradient"/><linearGradient id="linear-gradient-32" x1="99.47" y1="23.16" x2="105.24" y2="23.16" xlink:href="#linear-gradient"/><linearGradient id="linear-gradient-33" x1="101.61" y1="23.16" x2="103.11" y2="23.16" xlink:href="#linear-gradient"/><linearGradient id="linear-gradient-34" x1="158.02" y1="47.15" x2="162.54" y2="47.15" xlink:href="#linear-gradient"/><linearGradient id="linear-gradient-36" x1="25.37" y1="47.15" x2="53.01" y2="47.15" xlink:href="#linear-gradient"/><linearGradient id="linear-gradient-37" x1="34.83" y1="23.16" x2="87.17" y2="23.16" xlink:href="#linear-gradient"/><linearGradient id="linear-gradient-38" x1="164.18" y1="47.52" x2="197.24" y2="47.52" xlink:href="#linear-gradient"/><linearGradient id="linear-gradient-39" x1="90.99" y1="23.16" x2="97.3" y2="23.16" xlink:href="#linear-gradient"/><linearGradient id="linear-gradient-40" x1="16.66" y1="54.49" x2="19.6" y2="54.49" xlink:href="#linear-gradient"/><linearGradient id="linear-gradient-41" x1="80.09" y1="94.75" x2="122.01" y2="94.75" gradientUnits="userSpaceOnUse"><stop offset="0" stop-color="#0fd186"/><stop offset="0.11" stop-color="#18ca8f"/><stop offset="0.38" stop-color="#2abda1"/><stop offset="0.66" stop-color="#35b5ac"/><stop offset="1" stop-color="#38b2af"/></linearGradient><linearGradient id="linear-gradient-42" x1="57.27" y1="76.24" x2="202.27" y2="22.24" xlink:href="#linear-gradient"/><linearGradient id="linear-gradient-43" x1="144.44" y1="-21.41" x2="124.1" y2="26.92" xlink:href="#linear-gradient"/><linearGradient id="linear-gradient-44" x1="45.05" y1="81.08" x2="72.82" y2="81.08" xlink:href="#linear-gradient"/><linearGradient id="linear-gradient-45" x1="108.21" y1="8.2" x2="74.87" y2="45.53" xlink:href="#linear-gradient"/><linearGradient id="linear-gradient-46" x1="125.58" y1="23.71" x2="92.25" y2="61.04" xlink:href="#linear-gradient"/><linearGradient id="linear-gradient-47" x1="14.91" y1="105.78" x2="200.59" y2="105.78" xlink:href="#linear-gradient"/><linearGradient id="linear-gradient-48" x1="201.81" y1="105.78" x2="206.03" y2="105.78" xlink:href="#linear-gradient"/><linearGradient id="linear-gradient-49" x1="7.6" y1="105.78" x2="13.71" y2="105.78" xlink:href="#linear-gradient"/><linearGradient id="linear-gradient-50" x1="134.64" y1="90.91" x2="148.9" y2="90.91" xlink:href="#linear-gradient-41"/></defs><title>Asset 1</title><g id="Layer_2" data-name="Layer 2"><g id="Payment_Methods" data-name="Payment Methods"><g opacity="0.42"><g opacity="0.3"><path d="M192.81,105.78a85.17,85.17,0,0,0-7.35-34.71,26.93,26.93,0,0,0-24.26-38.6,27.13,27.13,0,0,0-8,1.2,85.08,85.08,0,0,0-45.81-13.31q-3.15,0-6.24.23a22,22,0,0,0-33.79,9.72A86,86,0,0,0,49.55,42.93a24.71,24.71,0,0,0-5.41-.61A24.39,24.39,0,0,0,25.28,82.17,85.56,85.56,0,0,0,22,105.78Z" fill="url(#linear-gradient)"/></g><g opacity="0.3"><path d="M169.44,105.78a62.05,62.05,0,1,0-124.1,0Z" fill="url(#linear-gradient-2)"/></g><g opacity="0.3"><path d="M201.45,73.18a4.87,4.87,0,1,1-4.86-4.87A4.87,4.87,0,0,1,201.45,73.18Z" fill="url(#linear-gradient-3)"/></g><g opacity="0.3"><circle cx="126.05" cy="12.49" r="7.49" transform="translate(84.84 132.27) rotate(-76.67)" fill="url(#linear-gradient-4)"/></g><g opacity="0.3"><path d="M57.61,30.8a3.21,3.21,0,1,1-3.21-3.21A3.21,3.21,0,0,1,57.61,30.8Z" fill="url(#linear-gradient-5)"/></g><g opacity="0.3"><circle cx="155.51" cy="24.92" r="3.21" fill="url(#linear-gradient-6)"/></g><g opacity="0.3"><path d="M87.93,3.21A3.21,3.21,0,1,1,84.72,0,3.21,3.21,0,0,1,87.93,3.21Z" fill="url(#linear-gradient-7)"/></g><g opacity="0.3"><path d="M196.15,84.94a1.32,1.32,0,1,1-1.32-1.31A1.32,1.32,0,0,1,196.15,84.94Z" fill="url(#linear-gradient-8)"/></g><g opacity="0.3"><path d="M155,2.22a1,1,0,1,1-1-1A1,1,0,0,1,155,2.22Z" fill="url(#linear-gradient-9)"/></g><g opacity="0.3"><circle cx="55.67" cy="7.15" r="1.29" fill="url(#linear-gradient-10)"/></g><g opacity="0.3"><path d="M3.43,35.91a1.72,1.72,0,1,1-1.72-1.72A1.72,1.72,0,0,1,3.43,35.91Z" fill="url(#linear-gradient-11)"/></g><g opacity="0.3"><path d="M209.61,48.45a1.72,1.72,0,1,1-1.72-1.71A1.72,1.72,0,0,1,209.61,48.45Z" fill="url(#linear-gradient-12)"/></g><g opacity="0.3"><circle cx="29.23" cy="28.98" r="7.26" fill="url(#linear-gradient-13)"/></g><g opacity="0.3"><path d="M9.56,81.93a1.71,1.71,0,1,1-1.71-1.71A1.71,1.71,0,0,1,9.56,81.93Z" fill="url(#linear-gradient-14)"/></g><g opacity="0.3"><path d="M198.76,30.8a7,7,0,1,1-7-7A7,7,0,0,1,198.76,30.8Z" fill="url(#linear-gradient-15)"/></g><g opacity="0.3"><circle cx="7.85" cy="62.62" r="6.92" fill="url(#linear-gradient-16)"/></g></g><path d="M76.58,13.24H72.3a.75.75,0,0,1,0-1.5h4.28a.75.75,0,0,1,0,1.5Z" fill="url(#linear-gradient-17)"/><path d="M74.44,15.38a.74.74,0,0,1-.75-.75V10.36a.75.75,0,0,1,1.5,0v4.27A.75.75,0,0,1,74.44,15.38Z" fill="url(#linear-gradient-18)"/><path d="M170.3,20H166a.75.75,0,0,1,0-1.5h4.27a.75.75,0,0,1,0,1.5Z" fill="url(#linear-gradient-19)"/><path d="M168.16,22.13a.76.76,0,0,1-.75-.75V17.1a.75.75,0,1,1,1.5,0v4.28A.75.75,0,0,1,168.16,22.13Z" fill="url(#linear-gradient-20)"/><path d="M40.82,39a.77.77,0,0,1-.53-.22.75.75,0,0,1,0-1.06l3-3a.75.75,0,1,1,1.06,1.06l-3,3A.79.79,0,0,1,40.82,39Z" fill="url(#linear-gradient-21)"/><path d="M43.84,39a.79.79,0,0,1-.53-.22l-3-3a.75.75,0,0,1,1.06-1.06l3,3a.75.75,0,0,1,0,1.06A.79.79,0,0,1,43.84,39Z" fill="url(#linear-gradient-21)"/><polygon points="14.37 81.09 16.27 79.99 18.17 81.09 18.17 83.28 16.27 84.38 14.37 83.28 14.37 81.09" fill="url(#linear-gradient-23)"/><polygon points="189.51 18.14 191.41 17.05 193.31 18.14 193.31 20.34 191.41 21.43 189.51 20.34 189.51 18.14" fill="url(#linear-gradient-24)"/><polygon points="187.92 70.98 189.82 69.89 191.72 70.98 191.72 73.17 189.82 74.27 187.92 73.17 187.92 70.98" fill="url(#linear-gradient-25)"/><polygon points="23.81 16 25.71 14.91 27.61 16 27.61 18.2 25.71 19.29 23.81 18.2 23.81 16" fill="url(#linear-gradient-26)"/><polygon points="111.88 10.27 114.44 8.79 117.01 10.27 117.01 13.22 114.44 14.7 111.88 13.22 111.88 10.27" fill="url(#linear-gradient-27)"/><path d="M174.22,31.55H131.89a.75.75,0,0,1,0-1.5h42.33a.75.75,0,0,1,0,1.5Z" fill="url(#linear-gradient-28)"/><path d="M129.25,31.55h-2.43a.75.75,0,0,1,0-1.5h2.43a.75.75,0,0,1,0,1.5Z" fill="url(#linear-gradient-29)"/><path d="M122.83,31.55h-4.28a.75.75,0,0,1,0-1.5h4.28a.75.75,0,0,1,0,1.5Z" fill="url(#linear-gradient-30)"/><path d="M120.69,33.69a.75.75,0,0,1-.75-.75V28.67a.75.75,0,0,1,1.5,0v4.27A.74.74,0,0,1,120.69,33.69Z" fill="url(#linear-gradient-31)"/><path d="M104.49,23.91h-4.27a.75.75,0,0,1,0-1.5h4.27a.75.75,0,0,1,0,1.5Z" fill="url(#linear-gradient-32)"/><path d="M102.36,26a.74.74,0,0,1-.75-.75V21a.75.75,0,1,1,1.5,0v4.27A.75.75,0,0,1,102.36,26Z" fill="url(#linear-gradient-33)"/><path d="M161.79,49.41a.74.74,0,0,1-.53-.22l-3-3a.74.74,0,0,1,0-1.06.75.75,0,0,1,1.06,0l3,3a.75.75,0,0,1,0,1.06A.74.74,0,0,1,161.79,49.41Z" fill="url(#linear-gradient-34)"/><path d="M158.77,49.41a.73.73,0,0,1-.53-.22.74.74,0,0,1,0-1.06l3-3a.75.75,0,0,1,1.06,1.06l-3,3A.74.74,0,0,1,158.77,49.41Z" fill="url(#linear-gradient-34)"/><path d="M52.26,47.9H26.12a.75.75,0,1,1,0-1.5H52.26a.75.75,0,0,1,0,1.5Z" fill="url(#linear-gradient-36)"/><path d="M86.42,23.91H35.58a.75.75,0,0,1,0-1.5H86.42a.75.75,0,0,1,0,1.5Z" fill="url(#linear-gradient-37)"/><path d="M196.49,48.27H164.93a.75.75,0,0,1,0-1.5h31.56a.75.75,0,0,1,0,1.5Z" fill="url(#linear-gradient-38)"/><path d="M96.55,23.91H91.74a.75.75,0,0,1,0-1.5h4.81a.75.75,0,0,1,0,1.5Z" fill="url(#linear-gradient-39)"/><polygon points="16.66 53.64 18.13 52.79 19.6 53.64 19.6 55.34 18.13 56.19 16.66 55.34 16.66 53.64" fill="url(#linear-gradient-40)"/><rect x="80.09" y="91.08" width="41.92" height="14.7" fill="#fff"/><g opacity="0.33"><rect x="80.09" y="91.08" width="41.92" height="7.35" fill="url(#linear-gradient-41)"/></g><rect x="58.72" y="38.68" width="85.84" height="53.44" rx="1.99" fill="#fff"/><path d="M142.56,38.68a2,2,0,0,1,2,2V80.14H58.72V40.68a2,2,0,0,1,2-2Z" fill="url(#linear-gradient-42)"/><path d="M142.48,92.87H60.62a2.74,2.74,0,0,1-2.74-2.74V40.68a2.75,2.75,0,0,1,2.74-2.75h81.86a2.75,2.75,0,0,1,2.74,2.75V90.13A2.74,2.74,0,0,1,142.48,92.87ZM60.62,39.43a1.25,1.25,0,0,0-1.24,1.25V90.13a1.25,1.25,0,0,0,1.24,1.24h81.86a1.25,1.25,0,0,0,1.24-1.24V40.68a1.25,1.25,0,0,0-1.24-1.25Z" fill="#0cbf6d"/><rect x="79.34" y="92.12" width="1.5" height="13.66" fill="#0cbf6d"/><rect x="121.26" y="92.12" width="1.5" height="13.66" fill="#0cbf6d"/><rect x="72.6" y="105.03" width="57.35" height="1.5" fill="#0cbf6d"/><rect x="58.63" y="79.78" width="85.84" height="1.5" fill="url(#linear-gradient-43)"/><g opacity="0.33"><path d="M60.62,92.87H76.57V58.65a3.1,3.1,0,0,0-3.1-3.09H57.88V90.13A2.74,2.74,0,0,0,60.62,92.87Z" fill="#0cbf6d"/><path d="M75.79,105H72.6v1.07h.87A3.07,3.07,0,0,0,75.79,105Z" fill="#0cbf6d"/></g><rect x="45.05" y="56.31" width="27.77" height="49.04" rx="2.35" fill="#fff"/><rect x="45.05" y="63.8" width="27.77" height="34.55" fill="url(#linear-gradient-44)"/><path d="M70.47,106.1H47.39A3.09,3.09,0,0,1,44.3,103V58.65a3.09,3.09,0,0,1,3.09-3.09H70.47a3.1,3.1,0,0,1,3.1,3.09V103A3.1,3.1,0,0,1,70.47,106.1Zm-23.08-49a1.59,1.59,0,0,0-1.59,1.59V103a1.6,1.6,0,0,0,1.59,1.6H70.47a1.6,1.6,0,0,0,1.6-1.6V58.65a1.6,1.6,0,0,0-1.6-1.59Z" fill="#0cbf6d"/><rect x="45.05" y="62.64" width="27.77" height="1.5" fill="url(#linear-gradient-45)"/><rect x="54.47" y="59.26" width="6.37" height="1.5" fill="#8aeac3"/><rect x="61.6" y="59.26" width="1.79" height="1.5" fill="#8aeac3"/><rect x="45.05" y="97.61" width="27.77" height="1.5" fill="url(#linear-gradient-46)"/><path d="M58.79,83.87l-3.35-3.35a.75.75,0,0,1,0-1.06.74.74,0,0,1,1.06,0l2.29,2.28,5.95-5.95a.75.75,0,1,1,1.06,1.06Z" fill="#fff"/><path d="M58.42,87.65A6.27,6.27,0,1,1,61.6,76l-.76,1.29a4.68,4.68,0,0,0-2.42-.66,4.77,4.77,0,1,0,4.77,4.77h1.5A6.28,6.28,0,0,1,58.42,87.65Z" fill="#fff"/><path d="M199.84,106.53H15.66a.75.75,0,1,1,0-1.5H199.84a.75.75,0,0,1,0,1.5Z" fill="url(#linear-gradient-47)"/><path d="M205.28,106.53h-2.72a.75.75,0,0,1,0-1.5h2.72a.75.75,0,0,1,0,1.5Z" fill="url(#linear-gradient-48)"/><path d="M13,106.53H8.35a.75.75,0,1,1,0-1.5H13a.75.75,0,1,1,0,1.5Z" fill="url(#linear-gradient-49)"/><path d="M148,101.88l-6.75,4.61a.13.13,0,0,1-.12,0l-6.74-4.61a12.88,12.88,0,0,1-5.61-10.63v-9.8a.35.35,0,0,1,.35-.34h24.13a.34.34,0,0,1,.34.34v9.8A12.9,12.9,0,0,1,148,101.88Z" fill="#fff"/><path d="M141.19,107.26a.85.85,0,0,1-.48-.15L134,102.5A13.62,13.62,0,0,1,128,91.25v-9.8a1.1,1.1,0,0,1,1.1-1.09h24.13a1.09,1.09,0,0,1,1.09,1.09v9.8a13.63,13.63,0,0,1-5.93,11.25l-6.74,4.61A.88.88,0,0,1,141.19,107.26Zm-11.66-25.4v9.39a12.13,12.13,0,0,0,5.28,10l6.38,4.36,6.38-4.36a12.1,12.1,0,0,0,5.28-10V81.86Z" fill="#0cbf6d"/><path d="M141.19,83.78a7.71,7.71,0,1,0,7.71,7.7A7.7,7.7,0,0,0,141.19,83.78Z" fill="#fff"/><g opacity="0.29"><path d="M141.19,83.78a7.68,7.68,0,0,0-6.55,3.66A7.7,7.7,0,0,1,145.24,98a7.7,7.7,0,0,0-4.05-14.25Z" fill="url(#linear-gradient-50)"/></g><path d="M139.25,95.5l-3.7-3.71a.74.74,0,0,1,0-1.06.75.75,0,0,1,1.06,0l2.64,2.64L144.62,88a.77.77,0,0,1,1.07,0,.75.75,0,0,1,0,1.06Z" fill="#0cbf6d"/><path d="M141.19,99.94a8.46,8.46,0,1,1,8.46-8.46A8.46,8.46,0,0,1,141.19,99.94Zm0-15.41a7,7,0,1,0,7,7A7,7,0,0,0,141.19,84.53Z" fill="#0cbf6d"/><rect x="66.02" y="44.89" width="71.98" height="7.6" fill="#0cbf6d"/><rect x="126.05" y="57.4" width="11.95" height="18.17" fill="#0cbf6d"/><rect x="84.47" y="60.01" width="34.09" height="0.96" fill="#0cbf6d"/><rect x="84.47" y="67.06" width="34.09" height="0.96" fill="#0cbf6d"/><rect x="84.47" y="73.6" width="34.09" height="0.96" fill="#0cbf6d"/></g></g></svg>